<?xml version="1.0" encoding="utf-8"?>
<!-- Generator: Adobe Illustrator 20.1.0, SVG Export Plug-In . SVG Version: 6.00 Build 0)  -->
<svg version="1.1" id="Layer_1" xmlns="http://www.w3.org/2000/svg" xmlns:xlink="http://www.w3.org/1999/xlink" x="0px" y="0px"
	 viewBox="0 0 36 36" style="enable-background:new 0 0 36 36;" xml:space="preserve">
<style type="text/css">
	.st0{fill:#FFFFFF;}
</style>
<path class="st0" d="M17.9,1.7C9,1.7,1.7,9,1.7,17.9S9,34.1,17.9,34.1c8.9,0,16.2-7.3,16.2-16.2S26.9,1.7,17.9,1.7z M25,22.7
	c0,1.2-1,2.2-2.2,2.2h-9.7c-1.2,0-2.2-1-2.2-2.2v-5.7h2.9c-0.1,0.3-0.1,0.5-0.1,0.8c0,2.4,1.9,4.3,4.3,4.3c2.4,0,4.3-1.9,4.3-4.3
	c0-0.3,0-0.6-0.1-0.8H25V22.7z M15.3,17.9c0-1.5,1.2-2.6,2.6-2.6c1.5,0,2.6,1.2,2.6,2.6c0,1.5-1.2,2.6-2.6,2.6
	C16.5,20.5,15.3,19.4,15.3,17.9z M25,15.4h-3.6c-0.8-1.1-2-1.8-3.5-1.8c-1.4,0-2.7,0.7-3.5,1.8h-3.6v-2.4c0-1.2,1-2.2,2.2-2.2h9.7
	c1.2,0,2.2,1,2.2,2.2L25,15.4L25,15.4z"/>
<path class="st0" d="M23.4,12h-1.2c-0.2,0-0.4,0.2-0.4,0.4v1.2c0,0.2,0.2,0.4,0.4,0.4h1.2c0.2,0,0.4-0.2,0.4-0.4v-1.2
	C23.8,12.2,23.6,12,23.4,12z"/>
</svg>
