<?xml version="1.0" encoding="utf-8"?>
<!-- Generator: Adobe Illustrator 20.1.0, SVG Export Plug-In . SVG Version: 6.00 Build 0)  -->
<svg version="1.1" xmlns="http://www.w3.org/2000/svg" xmlns:xlink="http://www.w3.org/1999/xlink" x="0px" y="0px"
	 viewBox="0 0 1920 1080" style="enable-background:new 0 0 1920 1080;" xml:space="preserve">
<style type="text/css">
	.st0{fill:none;}
	.st1{fill:#FCEE21;}
	.st2{fill:#8CC63F;stroke:#000000;stroke-miterlimit:10;}
	.st3{fill:url(#icon);stroke:#000000;stroke-miterlimit:10;}
</style>
<pattern  width="355.4" height="1168" patternUnits="userSpaceOnUse" id="icon" viewBox="24.8 -1168 355.4 1168" style="overflow:visible;">
	<g>
		<rect x="24.8" y="-1168" class="st0" width="355.4" height="1168"/>
		<g>
			<g>
				<path class="st1" d="M272.4-123.8c-0.3,0.3-0.7,0.5-1,0.8c-2.5,2.6-4.9,5.2-7.3,7.9c-1.2,1.3-1,3,0.3,4.2
					c0.3,0.3,0.8,0.4,1.2,0.7c-0.1,0.2-0.3,0.3-0.4,0.5c-4.9,1.8-9.7,3.6-14.6,5.4c-1.4,0.5-2.3,1.4-2.7,2.9
					c-4.2,14.8-8.4,29.6-12.7,44.5c-0.5,1.6-0.4,3,0.9,4.2c1.3,1.2,2.8,1.2,4.4,0.7c14.5-5.3,29-10.6,43.5-15.9
					c1.4-0.5,2.3-1.5,2.7-2.9c1.1-4.2,2.4-8.5,3.6-12.7c0.2-0.8,0.5-1.6,0.8-2.6c0.3,0.2,0.4,0.4,0.6,0.5c2,1.8,3.5,1.8,5.3-0.2
					c2.1-2.2,4.1-4.5,6.2-6.7c1.6-1.7,1.5-3.4-0.2-5c-7.4-6.8-14.7-13.7-22.1-20.5c-2.1-1.9-4.3-3.8-6.5-5.7
					C273.7-123.8,273-123.8,272.4-123.8z M243.7-59.6c5.2-5.6,10.4-11.3,15.7-16.8c0.4-0.4,1-0.6,1.5-0.7c1.2-0.2,2-1.1,1.9-2.2
					c-0.1-1.1-1-1.9-2.1-1.9c-1.2,0-2,0.9-2.1,2.2c0,0.4-0.1,0.9-0.4,1.2c-6.9,7.6-13.9,15.1-20.9,22.6c-0.1,0.1-0.3,0.2-0.7,0.5
					c0.1-0.7,0.1-1.1,0.2-1.5c4.2-14.9,8.4-29.8,12.6-44.7c0.3-0.9,0.8-1.5,1.7-1.8c4.7-1.7,9.3-3.4,13.9-5.1
					c1.2-0.5,2.2-0.3,3.2,0.6c6.7,6.3,13.4,12.5,20.1,18.7c0.8,0.8,1,1.6,0.7,2.7c-1.4,4.7-2.7,9.4-3.9,14.1c-0.3,1.2-1,1.9-2.2,2.3
					c-14.4,5.2-28.7,10.5-43.1,15.7c-0.5,0.2-1,0.3-1.5,0.4c-0.1-0.1-0.1-0.2-0.2-0.3C240-55.7,241.8-57.7,243.7-59.6z M301.8-94
					c-2.2,2.4-4.4,4.8-6.6,7.1c-0.9,0.9-1.4,1-2.3,0.1c-9.1-8.4-18.1-16.8-27.1-25.2c-1-0.9-1-1.4-0.1-2.4c2.1-2.3,4.2-4.6,6.3-6.9
					c1-1.1,1.4-1.1,2.5-0.1c8.8,8.2,17.7,16.4,26.5,24.6c0.5,0.5,1,1,1.5,1.6C302.2-94.6,302.1-94.2,301.8-94z"/>
				<path class="st1" d="M216.5-83.9c0.5,0.8,1.2,1,2.1,1c0.9,0,1.9,0,3,0c0,1.1,0,2.1,0,3.1c0,1.6,0.5,2.1,2.1,2.1
					c1.8,0,3.7,0,5.5,0c1.4,0,1.9-0.5,1.9-2c0-1.1,0-2.1,0-3.2c1.2,0,2.2,0,3.2,0c1.4,0,2-0.6,2-2.1c0-1.8,0-3.7,0-5.5
					c0-1.5-0.5-2-2-2c-1,0-2.1,0-3,0c-0.1-0.2-0.2-0.3-0.2-0.4c0-1,0-1.9,0-2.9c0-1.4-0.4-1.9-1.8-1.9c-1.9,0-3.8,0-5.6,0
					c-1.5,0-2,0.5-2,2c0,1,0,2,0,3.1c-1,0-1.7,0-2.5,0c-1-0.1-2,0.1-2.7,0.9C216.5-89,216.5-86.5,216.5-83.9z M218.2-90.8
					c1.4,0,2.7,0,4,0c0.9,0,1.2-0.3,1.2-1.2c0-1.3,0-2.5,0-3.9c2,0,3.9,0,6,0c0,1.2,0,2.5,0,3.8c0,1,0.4,1.4,1.3,1.3
					c1.2,0,2.5,0,3.8,0c0,2,0,4,0,6.2c-1.2,0-2.4,0.1-3.6,0c-1.1-0.1-1.5,0.4-1.4,1.5c0.1,1.2,0,2.4,0,3.7c-2,0-4,0-6.2,0
					c0-1.2,0-2.5,0-3.8c0-1-0.4-1.4-1.3-1.3c-1.2,0.1-2.5,0-3.9,0C218.2-86.8,218.2-88.7,218.2-90.8z"/>
			</g>
			<path class="st1" d="M359.2-132.9c-1.9,0.8-3.2,2.1-3.8,4.1c0,6.6,0,13.1,0,19.7c0.8,1.1,1.9,1.8,3.3,1.4
				c1.4-0.4,1.6-1.6,1.9-2.9c0.4-1.9,0.8-3.9,1.6-5.7c1.6-3.5,4.3-6,8.4-6.3c2.6-0.2,5.2-0.3,7.8-0.3c2,0,3.7,0.7,5,2.2
				c1.6,1.7,2.1,3.7,2.1,5.9c0,19.4,0,38.8,0,58.2c0,2.4-0.2,4.9-0.5,7.3c-0.4,2.9-2.2,4.6-5.1,5.1c-1.3,0.2-2.7,0.2-4.1,0.2
				c-1.7,0.1-2.6,0.9-2.6,2.4c0,1.5,1,2.4,2.6,2.4c11.4,0,22.7,0,34.1,0c1.6,0,2.6-1,2.7-2.4c0-1.5-1-2.4-2.6-2.5
				c-1,0-2.1,0-3.1-0.1c-3.9-0.3-5.7-2-6.1-5.9c-0.2-1.8-0.3-3.6-0.3-5.4c0-19.9,0-39.7,0-59.6c0-0.4,0-0.9,0-1.3
				c0.3-3.4,2.9-6.2,6.2-6.4c2.7-0.2,5.4-0.1,8,0.2c4.1,0.4,7.4,2.3,9.2,6c1,2.1,1.4,4.4,2,6.7c0.3,1.1,0.7,2,1.8,2.3
				c1.8,0.5,3.2-0.6,3.2-2.6c0-5.4-0.1-10.9,0-16.3c0.1-3.1-1.1-5.2-4.1-6.3C404.2-132.9,381.7-132.9,359.2-132.9z M380.6-42
				c4.4-1.2,6.4-3.5,6.9-8.1c0.2-1.7,0.3-3.3,0.3-5c0-20.2,0-40.4,0-60.6c0-5.4-3.9-9.6-9.3-9.7c-2.8-0.1-5.6,0.1-8.4,0.3
				c-5.3,0.5-8.5,3.7-10.6,8.3c-0.7,1.6-1.1,3.4-1.7,5.1c0-2.4,0-4.8,0-7.2c0-2.8,0-5.6,0-8.4c0-2.1,1.2-3.2,3.2-3.2
				c0.2,0,0.5,0,0.7,0c20.8,0,41.7,0,62.5,0c3.1,0,3.9,0.8,3.9,3.9c0,4.5,0,9,0,13.4c0,0.4,0,0.8,0,1.2c-0.1,0-0.1,0-0.2,0
				c-0.2-0.7-0.3-1.5-0.5-2.2c-1.6-6.2-6.2-10.3-12.6-11c-2.8-0.3-5.6-0.3-8.4-0.2c-4.7,0.2-8.5,4.1-8.8,9c0,0.6,0,1.1,0,1.7
				c0,19.2,0,38.5,0,57.7c0,2.7,0.2,5.4,0.5,8.1c0.4,3.6,2.5,5.8,6,6.8c0.3,0.1,0.7,0.2,1.3,0.4c-8.7,0-17.1,0-25.5,0
				c0,0,0-0.1,0-0.1C380.2-41.9,380.4-42,380.6-42z"/>
		</g>
		<g>
			<g>
				<path class="st1" d="M185.7-127.6c-0.4,0.5-0.9,1-1.3,1.5C168.2-107.1,152-88,135.8-68.9c-1.6,1.9-3.2,3.8-4.8,5.7
					c-1,1.3-0.7,2.2,0.7,2.8c3.2,1.4,5.9,3.4,8.2,6.1c1,1.2,1.8,1.2,2.8,0c0.3-0.3,0.5-0.7,0.7-1c14.8-22.9,29.6-45.8,44.3-68.8
					c1.1-1.6,0.9-2.4-0.6-3.5C186.7-127.6,186.2-127.6,185.7-127.6z M137.1-59c-1.5-1.1-3.2-2-5-3c18.1-21.3,36.1-42.7,54.2-64.1
					c0.2,0.1,0.3,0.2,0.5,0.4c-15.1,23.5-30.2,47.1-45.3,70.7C140-56.5,138.6-57.9,137.1-59z"/>
				<path class="st1" d="M118.8-47.2c0.5,2.7,1.1,5.4,1.3,8.2c0.1,1.1-0.8,2.2-1.3,3.3c0,0.2,0,0.5,0,0.7c0.9,1.4,2.3,1.1,3.6,0.9
					c4.3-0.7,8.4-2.1,12.1-4.4c1.4-0.9,2.9-2,3.7-3.4c2.9-4.5,1.9-10.4-2.1-13.9c-5.6-5-15.1-2.7-17.3,4.3
					C118.8-50.1,118.8-48.7,118.8-47.2z M120.9-44.3c-0.3-2.1-0.6-4.3-0.6-6.4c0-1,0.6-2.1,1.2-2.9c3.1-3.9,8.7-4.5,12.7-1.6
					c4,2.9,5.1,8.4,2.5,12.5c-0.7,1.1-1.7,2-2.8,2.7c-3.7,2.3-7.8,3.7-12.1,4.4c-0.4,0.1-0.8,0-1.2,0
					C122.4-38.5,121.2-41.4,120.9-44.3z"/>
			</g>
			<path class="st1" d="M3.8-132.9c-1.9,0.8-3.2,2.1-3.8,4.1c0,6.6,0,13.1,0,19.7c0.8,1.1,1.9,1.8,3.3,1.4c1.4-0.4,1.6-1.6,1.9-2.9
				c0.4-1.9,0.8-3.9,1.6-5.7c1.6-3.5,4.3-6,8.4-6.3c2.6-0.2,5.2-0.3,7.8-0.3c2,0,3.7,0.7,5,2.2c1.6,1.7,2.1,3.7,2.1,5.9
				c0,19.4,0,38.8,0,58.2c0,2.4-0.2,4.9-0.5,7.3c-0.4,2.9-2.2,4.6-5.1,5.1c-1.3,0.2-2.7,0.2-4.1,0.2c-1.7,0.1-2.6,0.9-2.6,2.4
				c0,1.5,1,2.4,2.6,2.4c11.4,0,22.7,0,34.1,0c1.6,0,2.6-1,2.7-2.4c0-1.5-1-2.4-2.6-2.5c-1,0-2.1,0-3.1-0.1c-3.9-0.3-5.7-2-6.1-5.9
				c-0.2-1.8-0.3-3.6-0.3-5.4c0-19.9,0-39.7,0-59.6c0-0.4,0-0.9,0-1.3c0.3-3.4,2.9-6.2,6.2-6.4c2.7-0.2,5.4-0.1,8,0.2
				c4.1,0.4,7.4,2.3,9.2,6c1,2.1,1.4,4.4,2,6.7c0.3,1.1,0.7,2,1.8,2.3c1.8,0.5,3.2-0.6,3.2-2.6c0-5.4-0.1-10.9,0-16.3
				c0.1-3.1-1.1-5.2-4.1-6.3C48.8-132.9,26.3-132.9,3.8-132.9z M25.3-42c4.4-1.2,6.4-3.5,6.9-8.1c0.2-1.7,0.3-3.3,0.3-5
				c0-20.2,0-40.4,0-60.6c0-5.4-3.9-9.6-9.3-9.7c-2.8-0.1-5.6,0.1-8.4,0.3c-5.3,0.5-8.5,3.7-10.6,8.3c-0.7,1.6-1.1,3.4-1.7,5.1
				c0-2.4,0-4.8,0-7.2c0-2.8,0-5.6,0-8.4c0-2.1,1.2-3.2,3.2-3.2c0.2,0,0.5,0,0.7,0c20.8,0,41.7,0,62.5,0c3.1,0,3.9,0.8,3.9,3.9
				c0,4.5,0,9,0,13.4c0,0.4,0,0.8,0,1.2c-0.1,0-0.1,0-0.2,0c-0.2-0.7-0.3-1.5-0.5-2.2c-1.6-6.2-6.2-10.3-12.6-11
				c-2.8-0.3-5.6-0.3-8.4-0.2c-4.7,0.2-8.5,4.1-8.8,9c0,0.6,0,1.1,0,1.7c0,19.2,0,38.5,0,57.7c0,2.7,0.2,5.4,0.5,8.1
				c0.4,3.6,2.5,5.8,6,6.8c0.3,0.1,0.7,0.2,1.3,0.4c-8.7,0-17.1,0-25.5,0c0,0,0-0.1,0-0.1C24.8-41.9,25-42,25.3-42z"/>
		</g>
		<g>
			<g>
				<path class="st1" d="M94.7-290.6c-0.3,0.3-0.7,0.5-1,0.8c-2.5,2.6-4.9,5.2-7.3,7.9c-1.2,1.3-1,3,0.3,4.2
					c0.3,0.3,0.8,0.4,1.2,0.7c-0.1,0.2-0.3,0.3-0.4,0.5c-4.9,1.8-9.7,3.6-14.6,5.4c-1.4,0.5-2.3,1.4-2.7,2.9
					c-4.2,14.8-8.4,29.6-12.7,44.5c-0.5,1.6-0.4,3,0.9,4.2c1.3,1.2,2.8,1.2,4.4,0.7c14.5-5.3,29-10.6,43.5-15.9
					c1.4-0.5,2.3-1.5,2.7-2.9c1.1-4.2,2.4-8.5,3.6-12.7c0.2-0.8,0.5-1.6,0.8-2.6c0.3,0.2,0.4,0.4,0.6,0.5c2,1.8,3.5,1.8,5.3-0.2
					c2.1-2.2,4.1-4.5,6.2-6.7c1.6-1.7,1.5-3.4-0.2-5c-7.4-6.8-14.7-13.7-22.1-20.5c-2.1-1.9-4.3-3.8-6.5-5.7
					C96-290.6,95.3-290.6,94.7-290.6z M66-226.5c5.2-5.6,10.4-11.3,15.7-16.8c0.4-0.4,1-0.6,1.5-0.7c1.2-0.2,2-1.1,1.9-2.2
					c-0.1-1.1-1-1.9-2.1-1.9c-1.2,0-2,0.9-2.1,2.2c0,0.4-0.1,0.9-0.4,1.2c-6.9,7.6-13.9,15.1-20.9,22.6c-0.1,0.1-0.3,0.2-0.7,0.5
					c0.1-0.7,0.1-1.1,0.2-1.5c4.2-14.9,8.4-29.8,12.6-44.7c0.3-0.9,0.8-1.5,1.7-1.8c4.7-1.7,9.3-3.4,13.9-5.1
					c1.2-0.5,2.2-0.3,3.2,0.6c6.7,6.3,13.4,12.5,20.1,18.7c0.8,0.8,1,1.6,0.7,2.7c-1.4,4.7-2.7,9.4-3.9,14.1c-0.3,1.2-1,1.9-2.2,2.3
					c-14.4,5.2-28.7,10.5-43.1,15.7c-0.5,0.2-1,0.3-1.5,0.4c-0.1-0.1-0.1-0.2-0.2-0.3C62.3-222.6,64.2-224.5,66-226.5z M124.1-260.8
					c-2.2,2.4-4.4,4.8-6.6,7.1c-0.9,0.9-1.4,1-2.3,0.1c-9.1-8.4-18.1-16.8-27.1-25.2c-1-0.9-1-1.4-0.1-2.4c2.1-2.3,4.2-4.6,6.3-6.9
					c1-1.1,1.4-1.1,2.5-0.1c8.8,8.2,17.7,16.4,26.5,24.6c0.5,0.5,1,1,1.5,1.6C124.6-261.5,124.4-261.1,124.1-260.8z"/>
				<path class="st1" d="M38.8-250.8c0.5,0.8,1.2,1,2.1,1c0.9,0,1.9,0,3,0c0,1.1,0,2.1,0,3.1c0,1.6,0.5,2.1,2.1,2.1
					c1.8,0,3.7,0,5.5,0c1.4,0,1.9-0.5,1.9-2c0-1.1,0-2.1,0-3.2c1.2,0,2.2,0,3.2,0c1.4,0,2-0.6,2-2.1c0-1.8,0-3.7,0-5.5
					c0-1.5-0.5-2-2-2c-1,0-2.1,0-3,0c-0.1-0.2-0.2-0.3-0.2-0.4c0-1,0-1.9,0-2.9c0-1.4-0.4-1.9-1.8-1.9c-1.9,0-3.8,0-5.6,0
					c-1.5,0-2,0.5-2,2c0,1,0,2,0,3.1c-1,0-1.7,0-2.5,0c-1-0.1-2,0.1-2.7,0.9C38.8-255.9,38.8-253.3,38.8-250.8z M40.5-257.7
					c1.4,0,2.7,0,4,0c0.9,0,1.2-0.3,1.2-1.2c0-1.3,0-2.5,0-3.9c2,0,3.9,0,6,0c0,1.2,0,2.5,0,3.8c0,1,0.4,1.4,1.3,1.3
					c1.2,0,2.5,0,3.8,0c0,2,0,4,0,6.2c-1.2,0-2.4,0.1-3.6,0c-1.1-0.1-1.5,0.4-1.4,1.5c0.1,1.2,0,2.4,0,3.7c-2,0-4,0-6.2,0
					c0-1.2,0-2.5,0-3.8c0-1-0.4-1.4-1.3-1.3c-1.2,0.1-2.5,0-3.9,0C40.5-253.6,40.5-255.6,40.5-257.7z"/>
			</g>
			<g>
				<path class="st1" d="M363.4-294.5c-0.4,0.5-0.9,1-1.3,1.5c-16.2,19.1-32.4,38.1-48.6,57.2c-1.6,1.9-3.2,3.8-4.8,5.7
					c-1,1.3-0.7,2.2,0.7,2.8c3.2,1.4,5.9,3.4,8.2,6.1c1,1.2,1.8,1.2,2.8,0c0.3-0.3,0.5-0.7,0.7-1c14.8-22.9,29.6-45.8,44.3-68.8
					c1.1-1.6,0.9-2.4-0.6-3.5C364.4-294.5,363.9-294.5,363.4-294.5z M314.8-225.9c-1.5-1.1-3.2-2-5-3c18.1-21.3,36.1-42.7,54.2-64.1
					c0.2,0.1,0.3,0.2,0.5,0.4c-15.1,23.5-30.2,47.1-45.3,70.7C317.7-223.4,316.3-224.7,314.8-225.9z"/>
				<path class="st1" d="M296.5-214.1c0.5,2.7,1.1,5.4,1.3,8.2c0.1,1.1-0.8,2.2-1.3,3.3c0,0.2,0,0.5,0,0.7c0.9,1.4,2.3,1.1,3.6,0.9
					c4.3-0.7,8.4-2.1,12.1-4.4c1.4-0.9,2.9-2,3.7-3.4c2.9-4.5,1.9-10.4-2.1-13.9c-5.6-5-15.1-2.7-17.3,4.3
					C296.5-217,296.5-215.5,296.5-214.1z M298.5-211.1c-0.3-2.1-0.6-4.3-0.6-6.4c0-1,0.6-2.1,1.2-2.9c3.1-3.9,8.7-4.5,12.7-1.6
					c4,2.9,5.1,8.4,2.5,12.5c-0.7,1.1-1.7,2-2.8,2.7c-3.7,2.3-7.8,3.7-12.1,4.4c-0.4,0.1-0.8,0-1.2,0
					C300.1-205.3,298.9-208.2,298.5-211.1z"/>
			</g>
			<path class="st1" d="M181.5-299.7c-1.9,0.8-3.2,2.1-3.8,4.1c0,6.6,0,13.1,0,19.7c0.8,1.1,1.9,1.8,3.3,1.4
				c1.4-0.4,1.6-1.6,1.9-2.9c0.4-1.9,0.8-3.9,1.6-5.7c1.6-3.5,4.3-6,8.4-6.3c2.6-0.2,5.2-0.3,7.8-0.3c2,0,3.7,0.7,5,2.2
				c1.6,1.7,2.1,3.7,2.1,5.9c0,19.4,0,38.8,0,58.2c0,2.4-0.2,4.9-0.5,7.3c-0.4,2.9-2.2,4.6-5.1,5.1c-1.3,0.2-2.7,0.2-4.1,0.2
				c-1.7,0.1-2.6,0.9-2.6,2.4c0,1.5,1,2.4,2.6,2.4c11.4,0,22.7,0,34.1,0c1.6,0,2.6-1,2.7-2.4c0-1.5-1-2.4-2.6-2.5
				c-1,0-2.1,0-3.1-0.1c-3.9-0.3-5.7-2-6.1-5.9c-0.2-1.8-0.3-3.6-0.3-5.4c0-19.9,0-39.7,0-59.6c0-0.4,0-0.9,0-1.3
				c0.3-3.4,2.9-6.2,6.2-6.4c2.7-0.2,5.4-0.1,8,0.2c4.1,0.4,7.4,2.3,9.2,6c1,2.1,1.4,4.4,2,6.7c0.3,1.1,0.7,2,1.8,2.3
				c1.8,0.5,3.2-0.6,3.2-2.6c0-5.4-0.1-10.9,0-16.3c0.1-3.1-1.1-5.2-4.1-6.3C226.5-299.7,204-299.7,181.5-299.7z M202.9-208.9
				c4.4-1.2,6.4-3.5,6.9-8.1c0.2-1.7,0.3-3.3,0.3-5c0-20.2,0-40.4,0-60.6c0-5.4-3.9-9.6-9.3-9.7c-2.8-0.1-5.6,0.1-8.4,0.3
				c-5.3,0.5-8.5,3.7-10.6,8.3c-0.7,1.6-1.1,3.4-1.7,5.1c0-2.4,0-4.8,0-7.2c0-2.8,0-5.6,0-8.4c0-2.1,1.2-3.2,3.2-3.2
				c0.2,0,0.5,0,0.7,0c20.8,0,41.7,0,62.5,0c3.1,0,3.9,0.8,3.9,3.9c0,4.5,0,9,0,13.4c0,0.4,0,0.8,0,1.2c-0.1,0-0.1,0-0.2,0
				c-0.2-0.7-0.3-1.5-0.5-2.2c-1.6-6.2-6.2-10.3-12.6-11c-2.8-0.3-5.6-0.3-8.4-0.2c-4.7,0.2-8.5,4.1-8.8,9c0,0.6,0,1.1,0,1.7
				c0,19.2,0,38.5,0,57.7c0,2.7,0.2,5.4,0.5,8.1c0.4,3.6,2.5,5.8,6,6.8c0.3,0.1,0.7,0.2,1.3,0.4c-8.7,0-17.1,0-25.5,0
				c0,0,0-0.1,0-0.1C202.5-208.8,202.7-208.8,202.9-208.9z"/>
		</g>
		<g>
			<g>
				<path class="st1" d="M272.4-457.5c-0.3,0.3-0.7,0.5-1,0.8c-2.5,2.6-4.9,5.2-7.3,7.9c-1.2,1.3-1,3,0.3,4.2
					c0.3,0.3,0.8,0.4,1.2,0.7c-0.1,0.2-0.3,0.3-0.4,0.5c-4.9,1.8-9.7,3.6-14.6,5.4c-1.4,0.5-2.3,1.4-2.7,2.9
					c-4.2,14.8-8.4,29.6-12.7,44.5c-0.5,1.6-0.4,3,0.9,4.2c1.3,1.2,2.8,1.2,4.4,0.7c14.5-5.3,29-10.6,43.5-15.9
					c1.4-0.5,2.3-1.5,2.7-2.9c1.1-4.2,2.4-8.5,3.6-12.7c0.2-0.8,0.5-1.6,0.8-2.6c0.3,0.2,0.4,0.4,0.6,0.5c2,1.8,3.5,1.8,5.3-0.2
					c2.1-2.2,4.1-4.5,6.2-6.7c1.6-1.7,1.5-3.4-0.2-5c-7.4-6.8-14.7-13.7-22.1-20.5c-2.1-1.9-4.3-3.8-6.5-5.7
					C273.7-457.5,273-457.5,272.4-457.5z M243.7-393.3c5.2-5.6,10.4-11.3,15.7-16.8c0.4-0.4,1-0.6,1.5-0.7c1.2-0.2,2-1.1,1.9-2.2
					c-0.1-1.1-1-1.9-2.1-1.9c-1.2,0-2,0.9-2.1,2.2c0,0.4-0.1,0.9-0.4,1.2c-6.9,7.6-13.9,15.1-20.9,22.6c-0.1,0.1-0.3,0.2-0.7,0.5
					c0.1-0.7,0.1-1.1,0.2-1.5c4.2-14.9,8.4-29.8,12.6-44.7c0.3-0.9,0.8-1.5,1.7-1.8c4.7-1.7,9.3-3.4,13.9-5.1
					c1.2-0.5,2.2-0.3,3.2,0.6c6.7,6.3,13.4,12.5,20.1,18.7c0.8,0.8,1,1.6,0.7,2.7c-1.4,4.7-2.7,9.4-3.9,14.1c-0.3,1.2-1,1.9-2.2,2.3
					c-14.4,5.2-28.7,10.5-43.1,15.7c-0.5,0.2-1,0.3-1.5,0.4c-0.1-0.1-0.1-0.2-0.2-0.3C240-389.4,241.8-391.4,243.7-393.3z
					 M301.8-427.7c-2.2,2.4-4.4,4.8-6.6,7.1c-0.9,0.9-1.4,1-2.3,0.1c-9.1-8.4-18.1-16.8-27.1-25.2c-1-0.9-1-1.4-0.1-2.4
					c2.1-2.3,4.2-4.6,6.3-6.9c1-1.1,1.4-1.1,2.5-0.1c8.8,8.2,17.7,16.4,26.5,24.6c0.5,0.5,1,1,1.5,1.6
					C302.2-428.3,302.1-428,301.8-427.7z"/>
				<path class="st1" d="M216.5-417.6c0.5,0.8,1.2,1,2.1,1c0.9,0,1.9,0,3,0c0,1.1,0,2.1,0,3.1c0,1.6,0.5,2.1,2.1,2.1
					c1.8,0,3.7,0,5.5,0c1.4,0,1.9-0.5,1.9-2c0-1.1,0-2.1,0-3.2c1.2,0,2.2,0,3.2,0c1.4,0,2-0.6,2-2.1c0-1.8,0-3.7,0-5.5
					c0-1.5-0.5-2-2-2c-1,0-2.1,0-3,0c-0.1-0.2-0.2-0.3-0.2-0.4c0-1,0-1.9,0-2.9c0-1.4-0.4-1.9-1.8-1.9c-1.9,0-3.8,0-5.6,0
					c-1.5,0-2,0.5-2,2c0,1,0,2,0,3.1c-1,0-1.7,0-2.5,0c-1-0.1-2,0.1-2.7,0.9C216.5-422.7,216.5-420.2,216.5-417.6z M218.2-424.5
					c1.4,0,2.7,0,4,0c0.9,0,1.2-0.3,1.2-1.2c0-1.3,0-2.5,0-3.9c2,0,3.9,0,6,0c0,1.2,0,2.5,0,3.8c0,1,0.4,1.4,1.3,1.3
					c1.2,0,2.5,0,3.8,0c0,2,0,4,0,6.2c-1.2,0-2.4,0.1-3.6,0c-1.1-0.1-1.5,0.4-1.4,1.5c0.1,1.2,0,2.4,0,3.7c-2,0-4,0-6.2,0
					c0-1.2,0-2.5,0-3.8c0-1-0.4-1.4-1.3-1.3c-1.2,0.1-2.5,0-3.9,0C218.2-420.5,218.2-422.4,218.2-424.5z"/>
			</g>
			<path class="st1" d="M359.2-466.6c-1.9,0.8-3.2,2.1-3.8,4.1c0,6.6,0,13.1,0,19.7c0.8,1.1,1.9,1.8,3.3,1.4
				c1.4-0.4,1.6-1.6,1.9-2.9c0.4-1.9,0.8-3.9,1.6-5.7c1.6-3.5,4.3-6,8.4-6.3c2.6-0.2,5.2-0.3,7.8-0.3c2,0,3.7,0.7,5,2.2
				c1.6,1.7,2.1,3.7,2.1,5.9c0,19.4,0,38.8,0,58.2c0,2.4-0.2,4.9-0.5,7.3c-0.4,2.9-2.2,4.6-5.1,5.1c-1.3,0.2-2.7,0.2-4.1,0.2
				c-1.7,0.1-2.6,0.9-2.6,2.4c0,1.5,1,2.4,2.6,2.4c11.4,0,22.7,0,34.1,0c1.6,0,2.6-1,2.7-2.4c0-1.5-1-2.4-2.6-2.5
				c-1,0-2.1,0-3.1-0.1c-3.9-0.3-5.7-2-6.1-5.9c-0.2-1.8-0.3-3.6-0.3-5.4c0-19.9,0-39.7,0-59.6c0-0.4,0-0.9,0-1.3
				c0.3-3.4,2.9-6.2,6.2-6.4c2.7-0.2,5.4-0.1,8,0.2c4.1,0.4,7.4,2.3,9.2,6c1,2.1,1.4,4.4,2,6.7c0.3,1.1,0.7,2,1.8,2.3
				c1.8,0.5,3.2-0.6,3.2-2.6c0-5.4-0.1-10.9,0-16.3c0.1-3.1-1.1-5.2-4.1-6.3C404.2-466.6,381.7-466.6,359.2-466.6z M380.6-375.7
				c4.4-1.2,6.4-3.5,6.9-8.1c0.2-1.7,0.3-3.3,0.3-5c0-20.2,0-40.4,0-60.6c0-5.4-3.9-9.6-9.3-9.7c-2.8-0.1-5.6,0.1-8.4,0.3
				c-5.3,0.5-8.5,3.7-10.6,8.3c-0.7,1.6-1.1,3.4-1.7,5.1c0-2.4,0-4.8,0-7.2c0-2.8,0-5.6,0-8.4c0-2.1,1.2-3.2,3.2-3.2
				c0.2,0,0.5,0,0.7,0c20.8,0,41.7,0,62.5,0c3.1,0,3.9,0.8,3.9,3.9c0,4.5,0,9,0,13.4c0,0.4,0,0.8,0,1.2c-0.1,0-0.1,0-0.2,0
				c-0.2-0.7-0.3-1.5-0.5-2.2c-1.6-6.2-6.2-10.3-12.6-11c-2.8-0.3-5.6-0.3-8.4-0.2c-4.7,0.2-8.5,4.1-8.8,9c0,0.6,0,1.1,0,1.7
				c0,19.2,0,38.5,0,57.7c0,2.7,0.2,5.4,0.5,8.1c0.4,3.6,2.5,5.8,6,6.8c0.3,0.1,0.7,0.2,1.3,0.4c-8.7,0-17.1,0-25.5,0
				c0,0,0-0.1,0-0.1C380.2-375.6,380.4-375.7,380.6-375.7z"/>
		</g>
		<g>
			<g>
				<path class="st1" d="M185.7-461.3c-0.4,0.5-0.9,1-1.3,1.5c-16.2,19.1-32.4,38.1-48.6,57.2c-1.6,1.9-3.2,3.8-4.8,5.7
					c-1,1.3-0.7,2.2,0.7,2.8c3.2,1.4,5.9,3.4,8.2,6.1c1,1.2,1.8,1.2,2.8,0c0.3-0.3,0.5-0.7,0.7-1c14.8-22.9,29.6-45.8,44.3-68.8
					c1.1-1.6,0.9-2.4-0.6-3.5C186.7-461.3,186.2-461.3,185.7-461.3z M137.1-392.7c-1.5-1.1-3.2-2-5-3c18.1-21.3,36.1-42.7,54.2-64.1
					c0.2,0.1,0.3,0.2,0.5,0.4c-15.1,23.5-30.2,47.1-45.3,70.7C140-390.2,138.6-391.6,137.1-392.7z"/>
				<path class="st1" d="M118.8-380.9c0.5,2.7,1.1,5.4,1.3,8.2c0.1,1.1-0.8,2.2-1.3,3.3c0,0.2,0,0.5,0,0.7c0.9,1.4,2.3,1.1,3.6,0.9
					c4.3-0.7,8.4-2.1,12.1-4.4c1.4-0.9,2.9-2,3.7-3.4c2.9-4.5,1.9-10.4-2.1-13.9c-5.6-5-15.1-2.7-17.3,4.3
					C118.8-383.8,118.8-382.4,118.8-380.9z M120.9-378c-0.3-2.1-0.6-4.3-0.6-6.4c0-1,0.6-2.1,1.2-2.9c3.1-3.9,8.7-4.5,12.7-1.6
					c4,2.9,5.1,8.4,2.5,12.5c-0.7,1.1-1.7,2-2.8,2.7c-3.7,2.3-7.8,3.7-12.1,4.4c-0.4,0.1-0.8,0-1.2,0
					C122.4-372.2,121.2-375.1,120.9-378z"/>
			</g>
			<path class="st1" d="M3.8-466.6c-1.9,0.8-3.2,2.1-3.8,4.1c0,6.6,0,13.1,0,19.7c0.8,1.1,1.9,1.8,3.3,1.4c1.4-0.4,1.6-1.6,1.9-2.9
				c0.4-1.9,0.8-3.9,1.6-5.7c1.6-3.5,4.3-6,8.4-6.3c2.6-0.2,5.2-0.3,7.8-0.3c2,0,3.7,0.7,5,2.2c1.6,1.7,2.1,3.7,2.1,5.9
				c0,19.4,0,38.8,0,58.2c0,2.4-0.2,4.9-0.5,7.3c-0.4,2.9-2.2,4.6-5.1,5.1c-1.3,0.2-2.7,0.2-4.1,0.2c-1.7,0.1-2.6,0.9-2.6,2.4
				c0,1.5,1,2.4,2.6,2.4c11.4,0,22.7,0,34.1,0c1.6,0,2.6-1,2.7-2.4c0-1.5-1-2.4-2.6-2.5c-1,0-2.1,0-3.1-0.1c-3.9-0.3-5.7-2-6.1-5.9
				c-0.2-1.8-0.3-3.6-0.3-5.4c0-19.9,0-39.7,0-59.6c0-0.4,0-0.9,0-1.3c0.3-3.4,2.9-6.2,6.2-6.4c2.7-0.2,5.4-0.1,8,0.2
				c4.1,0.4,7.4,2.3,9.2,6c1,2.1,1.4,4.4,2,6.7c0.3,1.1,0.7,2,1.8,2.3c1.8,0.5,3.2-0.6,3.2-2.6c0-5.4-0.1-10.9,0-16.3
				c0.1-3.1-1.1-5.2-4.1-6.3C48.8-466.6,26.3-466.6,3.8-466.6z M25.3-375.7c4.4-1.2,6.4-3.5,6.9-8.1c0.2-1.7,0.3-3.3,0.3-5
				c0-20.2,0-40.4,0-60.6c0-5.4-3.9-9.6-9.3-9.7c-2.8-0.1-5.6,0.1-8.4,0.3c-5.3,0.5-8.5,3.7-10.6,8.3c-0.7,1.6-1.1,3.4-1.7,5.1
				c0-2.4,0-4.8,0-7.2c0-2.8,0-5.6,0-8.4c0-2.1,1.2-3.2,3.2-3.2c0.2,0,0.5,0,0.7,0c20.8,0,41.7,0,62.5,0c3.1,0,3.9,0.8,3.9,3.9
				c0,4.5,0,9,0,13.4c0,0.4,0,0.8,0,1.2c-0.1,0-0.1,0-0.2,0c-0.2-0.7-0.3-1.5-0.5-2.2c-1.6-6.2-6.2-10.3-12.6-11
				c-2.8-0.3-5.6-0.3-8.4-0.2c-4.7,0.2-8.5,4.1-8.8,9c0,0.6,0,1.1,0,1.7c0,19.2,0,38.5,0,57.7c0,2.7,0.2,5.4,0.5,8.1
				c0.4,3.6,2.5,5.8,6,6.8c0.3,0.1,0.7,0.2,1.3,0.4c-8.7,0-17.1,0-25.5,0c0,0,0-0.1,0-0.1C24.8-375.6,25-375.7,25.3-375.7z"/>
		</g>
		<g>
			<g>
				<path class="st1" d="M94.7-624.3c-0.3,0.3-0.7,0.5-1,0.8c-2.5,2.6-4.9,5.2-7.3,7.9c-1.2,1.3-1,3,0.3,4.2
					c0.3,0.3,0.8,0.4,1.2,0.7c-0.1,0.2-0.3,0.3-0.4,0.5c-4.9,1.8-9.7,3.6-14.6,5.4c-1.4,0.5-2.3,1.4-2.7,2.9
					c-4.2,14.8-8.4,29.6-12.7,44.5c-0.5,1.6-0.4,3,0.9,4.2c1.3,1.2,2.8,1.2,4.4,0.7c14.5-5.3,29-10.6,43.5-15.9
					c1.4-0.5,2.3-1.5,2.7-2.9c1.1-4.2,2.4-8.5,3.6-12.7c0.2-0.8,0.5-1.6,0.8-2.6c0.3,0.2,0.4,0.4,0.6,0.5c2,1.8,3.5,1.8,5.3-0.2
					c2.1-2.2,4.1-4.5,6.2-6.7c1.6-1.7,1.5-3.4-0.2-5c-7.4-6.8-14.7-13.7-22.1-20.5c-2.1-1.9-4.3-3.8-6.5-5.7
					C96-624.3,95.3-624.3,94.7-624.3z M66-560.2c5.2-5.6,10.4-11.3,15.7-16.8c0.4-0.4,1-0.6,1.5-0.7c1.2-0.2,2-1.1,1.9-2.2
					c-0.1-1.1-1-1.9-2.1-1.9c-1.2,0-2,0.9-2.1,2.2c0,0.4-0.1,0.9-0.4,1.2c-6.9,7.6-13.9,15.1-20.9,22.6c-0.1,0.1-0.3,0.2-0.7,0.5
					c0.1-0.7,0.1-1.1,0.2-1.5c4.2-14.9,8.4-29.8,12.6-44.7c0.3-0.9,0.8-1.5,1.7-1.8c4.7-1.7,9.3-3.4,13.9-5.1
					c1.2-0.5,2.2-0.3,3.2,0.6c6.7,6.3,13.4,12.5,20.1,18.7c0.8,0.8,1,1.6,0.7,2.7c-1.4,4.7-2.7,9.4-3.9,14.1c-0.3,1.2-1,1.9-2.2,2.3
					c-14.4,5.2-28.7,10.5-43.1,15.7c-0.5,0.2-1,0.3-1.5,0.4c-0.1-0.1-0.1-0.2-0.2-0.3C62.3-556.3,64.2-558.2,66-560.2z M124.1-594.5
					c-2.2,2.4-4.4,4.8-6.6,7.1c-0.9,0.9-1.4,1-2.3,0.1c-9.1-8.4-18.1-16.8-27.1-25.2c-1-0.9-1-1.4-0.1-2.4c2.1-2.3,4.2-4.6,6.3-6.9
					c1-1.1,1.4-1.1,2.5-0.1c8.8,8.2,17.7,16.4,26.5,24.6c0.5,0.5,1,1,1.5,1.6C124.6-595.2,124.4-594.8,124.1-594.5z"/>
				<path class="st1" d="M38.8-584.5c0.5,0.8,1.2,1,2.1,1c0.9,0,1.9,0,3,0c0,1.1,0,2.1,0,3.1c0,1.6,0.5,2.1,2.1,2.1
					c1.8,0,3.7,0,5.5,0c1.4,0,1.9-0.5,1.9-2c0-1.1,0-2.1,0-3.2c1.2,0,2.2,0,3.2,0c1.4,0,2-0.6,2-2.1c0-1.8,0-3.7,0-5.5
					c0-1.5-0.5-2-2-2c-1,0-2.1,0-3,0c-0.1-0.2-0.2-0.3-0.2-0.4c0-1,0-1.9,0-2.9c0-1.4-0.4-1.9-1.8-1.9c-1.9,0-3.8,0-5.6,0
					c-1.5,0-2,0.5-2,2c0,1,0,2,0,3.1c-1,0-1.7,0-2.5,0c-1-0.1-2,0.1-2.7,0.9C38.8-589.6,38.8-587,38.8-584.5z M40.5-591.4
					c1.4,0,2.7,0,4,0c0.9,0,1.2-0.3,1.2-1.2c0-1.3,0-2.5,0-3.9c2,0,3.9,0,6,0c0,1.2,0,2.5,0,3.8c0,1,0.4,1.4,1.3,1.3
					c1.2,0,2.5,0,3.8,0c0,2,0,4,0,6.2c-1.2,0-2.4,0.1-3.6,0c-1.1-0.1-1.5,0.4-1.4,1.5c0.1,1.2,0,2.4,0,3.7c-2,0-4,0-6.2,0
					c0-1.2,0-2.5,0-3.8c0-1-0.4-1.4-1.3-1.3c-1.2,0.1-2.5,0-3.9,0C40.5-587.3,40.5-589.3,40.5-591.4z"/>
			</g>
			<g>
				<path class="st1" d="M363.4-628.2c-0.4,0.5-0.9,1-1.3,1.5c-16.2,19.1-32.4,38.1-48.6,57.2c-1.6,1.9-3.2,3.8-4.8,5.7
					c-1,1.3-0.7,2.2,0.7,2.8c3.2,1.4,5.9,3.4,8.2,6.1c1,1.2,1.8,1.2,2.8,0c0.3-0.3,0.5-0.7,0.7-1c14.8-22.9,29.6-45.8,44.3-68.8
					c1.1-1.6,0.9-2.4-0.6-3.5C364.4-628.2,363.9-628.2,363.4-628.2z M314.8-559.6c-1.5-1.1-3.2-2-5-3c18.1-21.3,36.1-42.7,54.2-64.1
					c0.2,0.1,0.3,0.2,0.5,0.4c-15.1,23.5-30.2,47.1-45.3,70.7C317.7-557.1,316.3-558.4,314.8-559.6z"/>
				<path class="st1" d="M296.5-547.8c0.5,2.7,1.1,5.4,1.3,8.2c0.1,1.1-0.8,2.2-1.3,3.3c0,0.2,0,0.5,0,0.7c0.9,1.4,2.3,1.1,3.6,0.9
					c4.3-0.7,8.4-2.1,12.1-4.4c1.4-0.9,2.9-2,3.7-3.4c2.9-4.5,1.9-10.4-2.1-13.9c-5.6-5-15.1-2.7-17.3,4.3
					C296.5-550.7,296.5-549.2,296.5-547.8z M298.5-544.8c-0.3-2.1-0.6-4.3-0.6-6.4c0-1,0.6-2.1,1.2-2.9c3.1-3.9,8.7-4.5,12.7-1.6
					c4,2.9,5.1,8.4,2.5,12.5c-0.7,1.1-1.7,2-2.8,2.7c-3.7,2.3-7.8,3.7-12.1,4.4c-0.4,0.1-0.8,0-1.2,0
					C300.1-539,298.9-541.9,298.5-544.8z"/>
			</g>
			<path class="st1" d="M181.5-633.4c-1.9,0.8-3.2,2.1-3.8,4.1c0,6.6,0,13.1,0,19.7c0.8,1.1,1.9,1.8,3.3,1.4
				c1.4-0.4,1.6-1.6,1.9-2.9c0.4-1.9,0.8-3.9,1.6-5.7c1.6-3.5,4.3-6,8.4-6.3c2.6-0.2,5.2-0.3,7.8-0.3c2,0,3.7,0.7,5,2.2
				c1.6,1.7,2.1,3.7,2.1,5.9c0,19.4,0,38.8,0,58.2c0,2.4-0.2,4.9-0.5,7.3c-0.4,2.9-2.2,4.6-5.1,5.1c-1.3,0.2-2.7,0.2-4.1,0.2
				c-1.7,0.1-2.6,0.9-2.6,2.4c0,1.5,1,2.4,2.6,2.4c11.4,0,22.7,0,34.1,0c1.6,0,2.6-1,2.7-2.4c0-1.5-1-2.4-2.6-2.5
				c-1,0-2.1,0-3.1-0.1c-3.9-0.3-5.7-2-6.1-5.9c-0.2-1.8-0.3-3.6-0.3-5.4c0-19.9,0-39.7,0-59.6c0-0.4,0-0.9,0-1.3
				c0.3-3.4,2.9-6.2,6.2-6.4c2.7-0.2,5.4-0.1,8,0.2c4.1,0.4,7.4,2.3,9.2,6c1,2.1,1.4,4.4,2,6.7c0.3,1.1,0.7,2,1.8,2.3
				c1.8,0.5,3.2-0.6,3.2-2.6c0-5.4-0.1-10.9,0-16.3c0.1-3.1-1.1-5.2-4.1-6.3C226.5-633.4,204-633.4,181.5-633.4z M202.9-542.6
				c4.4-1.2,6.4-3.5,6.9-8.1c0.2-1.7,0.3-3.3,0.3-5c0-20.2,0-40.4,0-60.6c0-5.4-3.9-9.6-9.3-9.7c-2.8-0.1-5.6,0.1-8.4,0.3
				c-5.3,0.5-8.5,3.7-10.6,8.3c-0.7,1.6-1.1,3.4-1.7,5.1c0-2.4,0-4.8,0-7.2c0-2.8,0-5.6,0-8.4c0-2.1,1.2-3.2,3.2-3.2
				c0.2,0,0.5,0,0.7,0c20.8,0,41.7,0,62.5,0c3.1,0,3.9,0.8,3.9,3.9c0,4.5,0,9,0,13.4c0,0.4,0,0.8,0,1.2c-0.1,0-0.1,0-0.2,0
				c-0.2-0.7-0.3-1.5-0.5-2.2c-1.6-6.2-6.2-10.3-12.6-11c-2.8-0.3-5.6-0.3-8.4-0.2c-4.7,0.2-8.5,4.1-8.8,9c0,0.6,0,1.1,0,1.7
				c0,19.2,0,38.5,0,57.7c0,2.7,0.2,5.4,0.5,8.1c0.4,3.6,2.5,5.8,6,6.8c0.3,0.1,0.7,0.2,1.3,0.4c-8.7,0-17.1,0-25.5,0
				c0,0,0-0.1,0-0.1C202.5-542.5,202.7-542.5,202.9-542.6z"/>
		</g>
		<g>
			<g>
				<path class="st1" d="M272.4-791.2c-0.3,0.3-0.7,0.5-1,0.8c-2.5,2.6-4.9,5.2-7.3,7.9c-1.2,1.3-1,3,0.3,4.2
					c0.3,0.3,0.8,0.4,1.2,0.7c-0.1,0.2-0.3,0.3-0.4,0.5c-4.9,1.8-9.7,3.6-14.6,5.4c-1.4,0.5-2.3,1.4-2.7,2.9
					c-4.2,14.8-8.4,29.6-12.7,44.5c-0.5,1.6-0.4,3,0.9,4.2c1.3,1.2,2.8,1.2,4.4,0.7c14.5-5.3,29-10.6,43.5-15.9
					c1.4-0.5,2.3-1.5,2.7-2.9c1.1-4.2,2.4-8.5,3.6-12.7c0.2-0.8,0.5-1.6,0.8-2.6c0.3,0.2,0.4,0.4,0.6,0.5c2,1.8,3.5,1.8,5.3-0.2
					c2.1-2.2,4.1-4.5,6.2-6.7c1.6-1.7,1.5-3.4-0.2-5c-7.4-6.8-14.7-13.7-22.1-20.5c-2.1-1.9-4.3-3.8-6.5-5.7
					C273.7-791.2,273-791.2,272.4-791.2z M243.7-727c5.2-5.6,10.4-11.3,15.7-16.8c0.4-0.4,1-0.6,1.5-0.7c1.2-0.2,2-1.1,1.9-2.2
					c-0.1-1.1-1-1.9-2.1-1.9c-1.2,0-2,0.9-2.1,2.2c0,0.4-0.1,0.9-0.4,1.2c-6.9,7.6-13.9,15.1-20.9,22.6c-0.1,0.1-0.3,0.2-0.7,0.5
					c0.1-0.7,0.1-1.1,0.2-1.5c4.2-14.9,8.4-29.8,12.6-44.7c0.3-0.9,0.8-1.5,1.7-1.8c4.7-1.7,9.3-3.4,13.9-5.1
					c1.2-0.5,2.2-0.3,3.2,0.6c6.7,6.3,13.4,12.5,20.1,18.7c0.8,0.8,1,1.6,0.7,2.7c-1.4,4.7-2.7,9.4-3.9,14.1c-0.3,1.2-1,1.9-2.2,2.3
					c-14.4,5.2-28.7,10.5-43.1,15.7c-0.5,0.2-1,0.3-1.5,0.4c-0.1-0.1-0.1-0.2-0.2-0.3C240-723.1,241.8-725.1,243.7-727z
					 M301.8-761.4c-2.2,2.4-4.4,4.8-6.6,7.1c-0.9,0.9-1.4,1-2.3,0.1c-9.1-8.4-18.1-16.8-27.1-25.2c-1-0.9-1-1.4-0.1-2.4
					c2.1-2.3,4.2-4.6,6.3-6.9c1-1.1,1.4-1.1,2.5-0.1c8.8,8.2,17.7,16.4,26.5,24.6c0.5,0.5,1,1,1.5,1.6
					C302.2-762,302.1-761.7,301.8-761.4z"/>
				<path class="st1" d="M216.5-751.3c0.5,0.8,1.2,1,2.1,1c0.9,0,1.9,0,3,0c0,1.1,0,2.1,0,3.1c0,1.6,0.5,2.1,2.1,2.1
					c1.8,0,3.7,0,5.5,0c1.4,0,1.9-0.5,1.9-2c0-1.1,0-2.1,0-3.2c1.2,0,2.2,0,3.2,0c1.4,0,2-0.6,2-2.1c0-1.8,0-3.7,0-5.5
					c0-1.5-0.5-2-2-2c-1,0-2.1,0-3,0c-0.1-0.2-0.2-0.3-0.2-0.4c0-1,0-1.9,0-2.9c0-1.4-0.4-1.9-1.8-1.9c-1.9,0-3.8,0-5.6,0
					c-1.5,0-2,0.5-2,2c0,1,0,2,0,3.1c-1,0-1.7,0-2.5,0c-1-0.1-2,0.1-2.7,0.9C216.5-756.4,216.5-753.9,216.5-751.3z M218.2-758.2
					c1.4,0,2.7,0,4,0c0.9,0,1.2-0.3,1.2-1.2c0-1.3,0-2.5,0-3.9c2,0,3.9,0,6,0c0,1.2,0,2.5,0,3.8c0,1,0.4,1.4,1.3,1.3
					c1.2,0,2.5,0,3.8,0c0,2,0,4,0,6.2c-1.2,0-2.4,0.1-3.6,0c-1.1-0.1-1.5,0.4-1.4,1.5c0.1,1.2,0,2.4,0,3.7c-2,0-4,0-6.2,0
					c0-1.2,0-2.5,0-3.8c0-1-0.4-1.4-1.3-1.3c-1.2,0.1-2.5,0-3.9,0C218.2-754.2,218.2-756.1,218.2-758.2z"/>
			</g>
			<path class="st1" d="M359.2-800.3c-1.9,0.8-3.2,2.1-3.8,4.1c0,6.6,0,13.1,0,19.7c0.8,1.1,1.9,1.8,3.3,1.4
				c1.4-0.4,1.6-1.6,1.9-2.9c0.4-1.9,0.8-3.9,1.6-5.7c1.6-3.5,4.3-6,8.4-6.3c2.6-0.2,5.2-0.3,7.8-0.3c2,0,3.7,0.7,5,2.2
				c1.6,1.7,2.1,3.7,2.1,5.9c0,19.4,0,38.8,0,58.2c0,2.4-0.2,4.9-0.5,7.3c-0.4,2.9-2.2,4.6-5.1,5.1c-1.3,0.2-2.7,0.2-4.1,0.2
				c-1.7,0.1-2.6,0.9-2.6,2.4c0,1.5,1,2.4,2.6,2.4c11.4,0,22.7,0,34.1,0c1.6,0,2.6-1,2.7-2.4c0-1.5-1-2.4-2.6-2.5
				c-1,0-2.1,0-3.1-0.1c-3.9-0.3-5.7-2-6.1-5.9c-0.2-1.8-0.3-3.6-0.3-5.4c0-19.9,0-39.7,0-59.6c0-0.4,0-0.9,0-1.3
				c0.3-3.4,2.9-6.2,6.2-6.4c2.7-0.2,5.4-0.1,8,0.2c4.1,0.4,7.4,2.3,9.2,6c1,2.1,1.4,4.4,2,6.7c0.3,1.1,0.7,2,1.8,2.3
				c1.8,0.5,3.2-0.6,3.2-2.6c0-5.4-0.1-10.9,0-16.3c0.1-3.1-1.1-5.2-4.1-6.3C404.2-800.3,381.7-800.3,359.2-800.3z M380.6-709.4
				c4.4-1.2,6.4-3.5,6.9-8.1c0.2-1.7,0.3-3.3,0.3-5c0-20.2,0-40.4,0-60.6c0-5.4-3.9-9.6-9.3-9.7c-2.8-0.1-5.6,0.1-8.4,0.3
				c-5.3,0.5-8.5,3.7-10.6,8.3c-0.7,1.6-1.1,3.4-1.7,5.1c0-2.4,0-4.8,0-7.2c0-2.8,0-5.6,0-8.4c0-2.1,1.2-3.2,3.2-3.2
				c0.2,0,0.5,0,0.7,0c20.8,0,41.7,0,62.5,0c3.1,0,3.9,0.8,3.9,3.9c0,4.5,0,9,0,13.4c0,0.4,0,0.8,0,1.2c-0.1,0-0.1,0-0.2,0
				c-0.2-0.7-0.3-1.5-0.5-2.2c-1.6-6.2-6.2-10.3-12.6-11c-2.8-0.3-5.6-0.3-8.4-0.2c-4.7,0.2-8.5,4.1-8.8,9c0,0.6,0,1.1,0,1.7
				c0,19.2,0,38.5,0,57.7c0,2.7,0.2,5.4,0.5,8.1c0.4,3.6,2.5,5.8,6,6.8c0.3,0.1,0.7,0.2,1.3,0.4c-8.7,0-17.1,0-25.5,0
				c0,0,0-0.1,0-0.1C380.2-709.3,380.4-709.4,380.6-709.4z"/>
		</g>
		<g>
			<g>
				<path class="st1" d="M185.7-795c-0.4,0.5-0.9,1-1.3,1.5c-16.2,19.1-32.4,38.1-48.6,57.2c-1.6,1.9-3.2,3.8-4.8,5.7
					c-1,1.3-0.7,2.2,0.7,2.8c3.2,1.4,5.9,3.4,8.2,6.1c1,1.2,1.8,1.2,2.8,0c0.3-0.3,0.5-0.7,0.7-1c14.8-22.9,29.6-45.8,44.3-68.8
					c1.1-1.6,0.9-2.4-0.6-3.5C186.7-795,186.2-795,185.7-795z M137.1-726.4c-1.5-1.1-3.2-2-5-3c18.1-21.3,36.1-42.7,54.2-64.1
					c0.2,0.1,0.3,0.2,0.5,0.4c-15.1,23.5-30.2,47.1-45.3,70.7C140-723.9,138.6-725.3,137.1-726.4z"/>
				<path class="st1" d="M118.8-714.6c0.5,2.7,1.1,5.4,1.3,8.2c0.1,1.1-0.8,2.2-1.3,3.3c0,0.2,0,0.5,0,0.7c0.9,1.4,2.3,1.1,3.6,0.9
					c4.3-0.7,8.4-2.1,12.1-4.4c1.4-0.9,2.9-2,3.7-3.4c2.9-4.5,1.9-10.4-2.1-13.9c-5.6-5-15.1-2.7-17.3,4.3
					C118.8-717.5,118.8-716.1,118.8-714.6z M120.9-711.7c-0.3-2.1-0.6-4.3-0.6-6.4c0-1,0.6-2.1,1.2-2.9c3.1-3.9,8.7-4.5,12.7-1.6
					c4,2.9,5.1,8.4,2.5,12.5c-0.7,1.1-1.7,2-2.8,2.7c-3.7,2.3-7.8,3.7-12.1,4.4c-0.4,0.1-0.8,0-1.2,0
					C122.4-705.9,121.2-708.8,120.9-711.7z"/>
			</g>
			<path class="st1" d="M3.8-800.3c-1.9,0.8-3.2,2.1-3.8,4.1c0,6.6,0,13.1,0,19.7c0.8,1.1,1.9,1.8,3.3,1.4c1.4-0.4,1.6-1.6,1.9-2.9
				c0.4-1.9,0.8-3.9,1.6-5.7c1.6-3.5,4.3-6,8.4-6.3c2.6-0.2,5.2-0.3,7.8-0.3c2,0,3.7,0.7,5,2.2c1.6,1.7,2.1,3.7,2.1,5.9
				c0,19.4,0,38.8,0,58.2c0,2.4-0.2,4.9-0.5,7.3c-0.4,2.9-2.2,4.6-5.1,5.1c-1.3,0.2-2.7,0.2-4.1,0.2c-1.7,0.1-2.6,0.9-2.6,2.4
				c0,1.5,1,2.4,2.6,2.4c11.4,0,22.7,0,34.1,0c1.6,0,2.6-1,2.7-2.4c0-1.5-1-2.4-2.6-2.5c-1,0-2.1,0-3.1-0.1c-3.9-0.3-5.7-2-6.1-5.9
				c-0.2-1.8-0.3-3.6-0.3-5.4c0-19.9,0-39.7,0-59.6c0-0.4,0-0.9,0-1.3c0.3-3.4,2.9-6.2,6.2-6.4c2.7-0.2,5.4-0.1,8,0.2
				c4.1,0.4,7.4,2.3,9.2,6c1,2.1,1.4,4.4,2,6.7c0.3,1.1,0.7,2,1.8,2.3c1.8,0.5,3.2-0.6,3.2-2.6c0-5.4-0.1-10.9,0-16.3
				c0.1-3.1-1.1-5.2-4.1-6.3C48.8-800.3,26.3-800.3,3.8-800.3z M25.3-709.4c4.4-1.2,6.4-3.5,6.9-8.1c0.2-1.7,0.3-3.3,0.3-5
				c0-20.2,0-40.4,0-60.6c0-5.4-3.9-9.6-9.3-9.7c-2.8-0.1-5.6,0.1-8.4,0.3c-5.3,0.5-8.5,3.7-10.6,8.3c-0.7,1.6-1.1,3.4-1.7,5.1
				c0-2.4,0-4.8,0-7.2c0-2.8,0-5.6,0-8.4c0-2.1,1.2-3.2,3.2-3.2c0.2,0,0.5,0,0.7,0c20.8,0,41.7,0,62.5,0c3.1,0,3.9,0.8,3.9,3.9
				c0,4.5,0,9,0,13.4c0,0.4,0,0.8,0,1.2c-0.1,0-0.1,0-0.2,0c-0.2-0.7-0.3-1.5-0.5-2.2c-1.6-6.2-6.2-10.3-12.6-11
				c-2.8-0.3-5.6-0.3-8.4-0.2c-4.7,0.2-8.5,4.1-8.8,9c0,0.6,0,1.1,0,1.7c0,19.2,0,38.5,0,57.7c0,2.7,0.2,5.4,0.5,8.1
				c0.4,3.6,2.5,5.8,6,6.8c0.3,0.1,0.7,0.2,1.3,0.4c-8.7,0-17.1,0-25.5,0c0,0,0-0.1,0-0.1C24.8-709.3,25-709.4,25.3-709.4z"/>
		</g>
		<g>
			<g>
				<path class="st1" d="M94.7-958c-0.3,0.3-0.7,0.5-1,0.8c-2.5,2.6-4.9,5.2-7.3,7.9c-1.2,1.3-1,3,0.3,4.2c0.3,0.3,0.8,0.4,1.2,0.7
					c-0.1,0.2-0.3,0.3-0.4,0.5c-4.9,1.8-9.7,3.6-14.6,5.4c-1.4,0.5-2.3,1.4-2.7,2.9c-4.2,14.8-8.4,29.6-12.7,44.5
					c-0.5,1.6-0.4,3,0.9,4.2c1.3,1.2,2.8,1.2,4.4,0.7c14.5-5.3,29-10.6,43.5-15.9c1.4-0.5,2.3-1.5,2.7-2.9c1.1-4.2,2.4-8.5,3.6-12.7
					c0.2-0.8,0.5-1.6,0.8-2.6c0.3,0.2,0.4,0.4,0.6,0.5c2,1.8,3.5,1.8,5.3-0.2c2.1-2.2,4.1-4.5,6.2-6.7c1.6-1.7,1.5-3.4-0.2-5
					c-7.4-6.8-14.7-13.7-22.1-20.5c-2.1-1.9-4.3-3.8-6.5-5.7C96-958,95.3-958,94.7-958z M66-893.9c5.2-5.6,10.4-11.3,15.7-16.8
					c0.4-0.4,1-0.6,1.5-0.7c1.2-0.2,2-1.1,1.9-2.2c-0.1-1.1-1-1.9-2.1-1.9c-1.2,0-2,0.9-2.1,2.2c0,0.4-0.1,0.9-0.4,1.2
					c-6.9,7.6-13.9,15.1-20.9,22.6c-0.1,0.1-0.3,0.2-0.7,0.5c0.1-0.7,0.1-1.1,0.2-1.5c4.2-14.9,8.4-29.8,12.6-44.7
					c0.3-0.9,0.8-1.5,1.7-1.8c4.7-1.7,9.3-3.4,13.9-5.1c1.2-0.5,2.2-0.3,3.2,0.6c6.7,6.3,13.4,12.5,20.1,18.7c0.8,0.8,1,1.6,0.7,2.7
					c-1.4,4.7-2.7,9.4-3.9,14.1c-0.3,1.2-1,1.9-2.2,2.3c-14.4,5.2-28.7,10.5-43.1,15.7c-0.5,0.2-1,0.3-1.5,0.4
					c-0.1-0.1-0.1-0.2-0.2-0.3C62.3-890,64.2-891.9,66-893.9z M124.1-928.2c-2.2,2.4-4.4,4.8-6.6,7.1c-0.9,0.9-1.4,1-2.3,0.1
					c-9.1-8.4-18.1-16.8-27.1-25.2c-1-0.9-1-1.4-0.1-2.4c2.1-2.3,4.2-4.6,6.3-6.9c1-1.1,1.4-1.1,2.5-0.1
					c8.8,8.2,17.7,16.4,26.5,24.6c0.5,0.5,1,1,1.5,1.6C124.6-928.9,124.4-928.5,124.1-928.2z"/>
				<path class="st1" d="M38.8-918.2c0.5,0.8,1.2,1,2.1,1c0.9,0,1.9,0,3,0c0,1.1,0,2.1,0,3.1c0,1.6,0.5,2.1,2.1,2.1
					c1.8,0,3.7,0,5.5,0c1.4,0,1.9-0.5,1.9-2c0-1.1,0-2.1,0-3.2c1.2,0,2.2,0,3.2,0c1.4,0,2-0.6,2-2.1c0-1.8,0-3.7,0-5.5
					c0-1.5-0.5-2-2-2c-1,0-2.1,0-3,0c-0.1-0.2-0.2-0.3-0.2-0.4c0-1,0-1.9,0-2.9c0-1.4-0.4-1.9-1.8-1.9c-1.9,0-3.8,0-5.6,0
					c-1.5,0-2,0.5-2,2c0,1,0,2,0,3.1c-1,0-1.7,0-2.5,0c-1-0.1-2,0.1-2.7,0.9C38.8-923.3,38.8-920.7,38.8-918.2z M40.5-925.1
					c1.4,0,2.7,0,4,0c0.9,0,1.2-0.3,1.2-1.2c0-1.3,0-2.5,0-3.9c2,0,3.9,0,6,0c0,1.2,0,2.5,0,3.8c0,1,0.4,1.4,1.3,1.3
					c1.2,0,2.5,0,3.8,0c0,2,0,4,0,6.2c-1.2,0-2.4,0.1-3.6,0c-1.1-0.1-1.5,0.4-1.4,1.5c0.1,1.2,0,2.4,0,3.7c-2,0-4,0-6.2,0
					c0-1.2,0-2.5,0-3.8c0-1-0.4-1.4-1.3-1.3c-1.2,0.1-2.5,0-3.9,0C40.5-921,40.5-923,40.5-925.1z"/>
			</g>
			<g>
				<path class="st1" d="M363.4-961.9c-0.4,0.5-0.9,1-1.3,1.5c-16.2,19.1-32.4,38.1-48.6,57.2c-1.6,1.9-3.2,3.8-4.8,5.7
					c-1,1.3-0.7,2.2,0.7,2.8c3.2,1.4,5.9,3.4,8.2,6.1c1,1.2,1.8,1.2,2.8,0c0.3-0.3,0.5-0.7,0.7-1c14.8-22.9,29.6-45.8,44.3-68.8
					c1.1-1.6,0.9-2.4-0.6-3.5C364.4-961.9,363.9-961.9,363.4-961.9z M314.8-893.3c-1.5-1.1-3.2-2-5-3c18.1-21.3,36.1-42.7,54.2-64.1
					c0.2,0.1,0.3,0.2,0.5,0.4c-15.1,23.5-30.2,47.1-45.3,70.7C317.7-890.8,316.3-892.2,314.8-893.3z"/>
				<path class="st1" d="M296.5-881.5c0.5,2.7,1.1,5.4,1.3,8.2c0.1,1.1-0.8,2.2-1.3,3.3c0,0.2,0,0.5,0,0.7c0.9,1.4,2.3,1.1,3.6,0.9
					c4.3-0.7,8.4-2.1,12.1-4.4c1.4-0.9,2.9-2,3.7-3.4c2.9-4.5,1.9-10.4-2.1-13.9c-5.6-5-15.1-2.7-17.3,4.3
					C296.5-884.4,296.5-882.9,296.5-881.5z M298.5-878.5c-0.3-2.1-0.6-4.3-0.6-6.4c0-1,0.6-2.1,1.2-2.9c3.1-3.9,8.7-4.5,12.7-1.6
					c4,2.9,5.1,8.4,2.5,12.5c-0.7,1.1-1.7,2-2.8,2.7c-3.7,2.3-7.8,3.7-12.1,4.4c-0.4,0.1-0.8,0-1.2,0
					C300.1-872.7,298.9-875.6,298.5-878.5z"/>
			</g>
			<path class="st1" d="M181.5-967.2c-1.9,0.8-3.2,2.1-3.8,4.1c0,6.6,0,13.1,0,19.7c0.8,1.1,1.9,1.8,3.3,1.4
				c1.4-0.4,1.6-1.6,1.9-2.9c0.4-1.9,0.8-3.9,1.6-5.7c1.6-3.5,4.3-6,8.4-6.3c2.6-0.2,5.2-0.3,7.8-0.3c2,0,3.7,0.7,5,2.2
				c1.6,1.7,2.1,3.7,2.1,5.9c0,19.4,0,38.8,0,58.2c0,2.4-0.2,4.9-0.5,7.3c-0.4,2.9-2.2,4.6-5.1,5.1c-1.3,0.2-2.7,0.2-4.1,0.2
				c-1.7,0.1-2.6,0.9-2.6,2.4c0,1.5,1,2.4,2.6,2.4c11.4,0,22.7,0,34.1,0c1.6,0,2.6-1,2.7-2.4c0-1.5-1-2.4-2.6-2.5
				c-1,0-2.1,0-3.1-0.1c-3.9-0.3-5.7-2-6.1-5.9c-0.2-1.8-0.3-3.6-0.3-5.4c0-19.9,0-39.7,0-59.6c0-0.4,0-0.9,0-1.3
				c0.3-3.4,2.9-6.2,6.2-6.4c2.7-0.2,5.4-0.1,8,0.2c4.1,0.4,7.4,2.3,9.2,6c1,2.1,1.4,4.4,2,6.7c0.3,1.1,0.7,2,1.8,2.3
				c1.8,0.5,3.2-0.6,3.2-2.6c0-5.4-0.1-10.9,0-16.3c0.1-3.1-1.1-5.2-4.1-6.3C226.5-967.2,204-967.2,181.5-967.2z M202.9-876.3
				c4.4-1.2,6.4-3.5,6.9-8.1c0.2-1.7,0.3-3.3,0.3-5c0-20.2,0-40.4,0-60.6c0-5.4-3.9-9.6-9.3-9.7c-2.8-0.1-5.6,0.1-8.4,0.3
				c-5.3,0.5-8.5,3.7-10.6,8.3c-0.7,1.6-1.1,3.4-1.7,5.1c0-2.4,0-4.8,0-7.2c0-2.8,0-5.6,0-8.4c0-2.1,1.2-3.2,3.2-3.2
				c0.2,0,0.5,0,0.7,0c20.8,0,41.7,0,62.5,0c3.1,0,3.9,0.8,3.9,3.9c0,4.5,0,9,0,13.4c0,0.4,0,0.8,0,1.2c-0.1,0-0.1,0-0.2,0
				c-0.2-0.7-0.3-1.5-0.5-2.2c-1.6-6.2-6.2-10.3-12.6-11c-2.8-0.3-5.6-0.3-8.4-0.2c-4.7,0.2-8.5,4.1-8.8,9c0,0.6,0,1.1,0,1.7
				c0,19.2,0,38.5,0,57.7c0,2.7,0.2,5.4,0.5,8.1c0.4,3.6,2.5,5.8,6,6.8c0.3,0.1,0.7,0.2,1.3,0.4c-8.7,0-17.1,0-25.5,0
				c0,0,0-0.1,0-0.1C202.5-876.2,202.7-876.2,202.9-876.3z"/>
		</g>
		<g>
			<g>
				<path class="st1" d="M272.4-1124.9c-0.3,0.3-0.7,0.5-1,0.8c-2.5,2.6-4.9,5.2-7.3,7.9c-1.2,1.3-1,3,0.3,4.2
					c0.3,0.3,0.8,0.4,1.2,0.7c-0.1,0.2-0.3,0.3-0.4,0.5c-4.9,1.8-9.7,3.6-14.6,5.4c-1.4,0.5-2.3,1.4-2.7,2.9
					c-4.2,14.8-8.4,29.6-12.7,44.5c-0.5,1.6-0.4,3,0.9,4.2c1.3,1.2,2.8,1.2,4.4,0.7c14.5-5.3,29-10.6,43.5-15.9
					c1.4-0.5,2.3-1.5,2.7-2.9c1.1-4.2,2.4-8.5,3.6-12.7c0.2-0.8,0.5-1.6,0.8-2.6c0.3,0.2,0.4,0.4,0.6,0.5c2,1.8,3.5,1.8,5.3-0.2
					c2.1-2.2,4.1-4.5,6.2-6.7c1.6-1.7,1.5-3.4-0.2-5c-7.4-6.8-14.7-13.7-22.1-20.5c-2.1-1.9-4.3-3.8-6.5-5.7
					C273.7-1124.9,273-1124.9,272.4-1124.9z M243.7-1060.7c5.2-5.6,10.4-11.3,15.7-16.8c0.4-0.4,1-0.6,1.5-0.7
					c1.2-0.2,2-1.1,1.9-2.2c-0.1-1.1-1-1.9-2.1-1.9c-1.2,0-2,0.9-2.1,2.2c0,0.4-0.1,0.9-0.4,1.2c-6.9,7.6-13.9,15.1-20.9,22.6
					c-0.1,0.1-0.3,0.2-0.7,0.5c0.1-0.7,0.1-1.1,0.2-1.5c4.2-14.9,8.4-29.8,12.6-44.7c0.3-0.9,0.8-1.5,1.7-1.8
					c4.7-1.7,9.3-3.4,13.9-5.1c1.2-0.5,2.2-0.3,3.2,0.6c6.7,6.3,13.4,12.5,20.1,18.7c0.8,0.8,1,1.6,0.7,2.7
					c-1.4,4.7-2.7,9.4-3.9,14.1c-0.3,1.2-1,1.9-2.2,2.3c-14.4,5.2-28.7,10.5-43.1,15.7c-0.5,0.2-1,0.3-1.5,0.4
					c-0.1-0.1-0.1-0.2-0.2-0.3C240-1056.8,241.8-1058.8,243.7-1060.7z M301.8-1095.1c-2.2,2.4-4.4,4.8-6.6,7.1
					c-0.9,0.9-1.4,1-2.3,0.1c-9.1-8.4-18.1-16.8-27.1-25.2c-1-0.9-1-1.4-0.1-2.4c2.1-2.3,4.2-4.6,6.3-6.9c1-1.1,1.4-1.1,2.5-0.1
					c8.8,8.2,17.7,16.4,26.5,24.6c0.5,0.5,1,1,1.5,1.6C302.2-1095.7,302.1-1095.4,301.8-1095.1z"/>
				<path class="st1" d="M216.5-1085c0.5,0.8,1.2,1,2.1,1c0.9,0,1.9,0,3,0c0,1.1,0,2.1,0,3.1c0,1.6,0.5,2.1,2.1,2.1
					c1.8,0,3.7,0,5.5,0c1.4,0,1.9-0.5,1.9-2c0-1.1,0-2.1,0-3.2c1.2,0,2.2,0,3.2,0c1.4,0,2-0.6,2-2.1c0-1.8,0-3.7,0-5.5
					c0-1.5-0.5-2-2-2c-1,0-2.1,0-3,0c-0.1-0.2-0.2-0.3-0.2-0.4c0-1,0-1.9,0-2.9c0-1.4-0.4-1.9-1.8-1.9c-1.9,0-3.8,0-5.6,0
					c-1.5,0-2,0.5-2,2c0,1,0,2,0,3.1c-1,0-1.7,0-2.5,0c-1-0.1-2,0.1-2.7,0.9C216.5-1090.1,216.5-1087.6,216.5-1085z M218.2-1091.9
					c1.4,0,2.7,0,4,0c0.9,0,1.2-0.3,1.2-1.2c0-1.3,0-2.5,0-3.9c2,0,3.9,0,6,0c0,1.2,0,2.5,0,3.8c0,1,0.4,1.4,1.3,1.3
					c1.2,0,2.5,0,3.8,0c0,2,0,4,0,6.2c-1.2,0-2.4,0.1-3.6,0c-1.1-0.1-1.5,0.4-1.4,1.5c0.1,1.2,0,2.4,0,3.7c-2,0-4,0-6.2,0
					c0-1.2,0-2.5,0-3.8c0-1-0.4-1.4-1.3-1.3c-1.2,0.1-2.5,0-3.9,0C218.2-1087.9,218.2-1089.8,218.2-1091.9z"/>
			</g>
			<path class="st1" d="M359.2-1134c-1.9,0.8-3.2,2.1-3.8,4.1c0,6.6,0,13.1,0,19.7c0.8,1.1,1.9,1.8,3.3,1.4c1.4-0.4,1.6-1.6,1.9-2.9
				c0.4-1.9,0.8-3.9,1.6-5.7c1.6-3.5,4.3-6,8.4-6.3c2.6-0.2,5.2-0.3,7.8-0.3c2,0,3.7,0.7,5,2.2c1.6,1.7,2.1,3.7,2.1,5.9
				c0,19.4,0,38.8,0,58.2c0,2.4-0.2,4.9-0.5,7.3c-0.4,2.9-2.2,4.6-5.1,5.1c-1.3,0.2-2.7,0.2-4.1,0.2c-1.7,0.1-2.6,0.9-2.6,2.4
				c0,1.5,1,2.4,2.6,2.4c11.4,0,22.7,0,34.1,0c1.6,0,2.6-1,2.7-2.4c0-1.5-1-2.4-2.6-2.5c-1,0-2.1,0-3.1-0.1c-3.9-0.3-5.7-2-6.1-5.9
				c-0.2-1.8-0.3-3.6-0.3-5.4c0-19.9,0-39.7,0-59.6c0-0.4,0-0.9,0-1.3c0.3-3.4,2.9-6.2,6.2-6.4c2.7-0.2,5.4-0.1,8,0.2
				c4.1,0.4,7.4,2.3,9.2,6c1,2.1,1.4,4.4,2,6.7c0.3,1.1,0.7,2,1.8,2.3c1.8,0.5,3.2-0.6,3.2-2.6c0-5.4-0.1-10.9,0-16.3
				c0.1-3.1-1.1-5.2-4.1-6.3C404.2-1134,381.7-1134,359.2-1134z M380.6-1043.1c4.4-1.2,6.4-3.5,6.9-8.1c0.2-1.7,0.3-3.3,0.3-5
				c0-20.2,0-40.4,0-60.6c0-5.4-3.9-9.6-9.3-9.7c-2.8-0.1-5.6,0.1-8.4,0.3c-5.3,0.5-8.5,3.7-10.6,8.3c-0.7,1.6-1.1,3.4-1.7,5.1
				c0-2.4,0-4.8,0-7.2c0-2.8,0-5.6,0-8.4c0-2.1,1.2-3.2,3.2-3.2c0.2,0,0.5,0,0.7,0c20.8,0,41.7,0,62.5,0c3.1,0,3.9,0.8,3.9,3.9
				c0,4.5,0,9,0,13.4c0,0.4,0,0.8,0,1.2c-0.1,0-0.1,0-0.2,0c-0.2-0.7-0.3-1.5-0.5-2.2c-1.6-6.2-6.2-10.3-12.6-11
				c-2.8-0.3-5.6-0.3-8.4-0.2c-4.7,0.2-8.5,4.1-8.8,9c0,0.6,0,1.1,0,1.7c0,19.2,0,38.5,0,57.7c0,2.7,0.2,5.4,0.5,8.1
				c0.4,3.6,2.5,5.8,6,6.8c0.3,0.1,0.7,0.2,1.3,0.4c-8.7,0-17.1,0-25.5,0c0,0,0-0.1,0-0.1C380.2-1043,380.4-1043.1,380.6-1043.1z"/>
		</g>
		<g>
			<g>
				<path class="st1" d="M185.7-1128.8c-0.4,0.5-0.9,1-1.3,1.5c-16.2,19.1-32.4,38.1-48.6,57.2c-1.6,1.9-3.2,3.8-4.8,5.7
					c-1,1.3-0.7,2.2,0.7,2.8c3.2,1.4,5.9,3.4,8.2,6.1c1,1.2,1.8,1.2,2.8,0c0.3-0.3,0.5-0.7,0.7-1c14.8-22.9,29.6-45.8,44.3-68.8
					c1.1-1.6,0.9-2.4-0.6-3.5C186.7-1128.8,186.2-1128.8,185.7-1128.8z M137.1-1060.1c-1.5-1.1-3.2-2-5-3
					c18.1-21.3,36.1-42.7,54.2-64.1c0.2,0.1,0.3,0.2,0.5,0.4c-15.1,23.5-30.2,47.1-45.3,70.7C140-1057.6,138.6-1059,137.1-1060.1z"
					/>
				<path class="st1" d="M118.8-1048.4c0.5,2.7,1.1,5.4,1.3,8.2c0.1,1.1-0.8,2.2-1.3,3.3c0,0.2,0,0.5,0,0.7c0.9,1.4,2.3,1.1,3.6,0.9
					c4.3-0.7,8.4-2.1,12.1-4.4c1.4-0.9,2.9-2,3.7-3.4c2.9-4.5,1.9-10.4-2.1-13.9c-5.6-5-15.1-2.7-17.3,4.3
					C118.8-1051.2,118.8-1049.8,118.8-1048.4z M120.9-1045.4c-0.3-2.1-0.6-4.3-0.6-6.4c0-1,0.6-2.1,1.2-2.9
					c3.1-3.9,8.7-4.5,12.7-1.6c4,2.9,5.1,8.4,2.5,12.5c-0.7,1.1-1.7,2-2.8,2.7c-3.7,2.3-7.8,3.7-12.1,4.4c-0.4,0.1-0.8,0-1.2,0
					C122.4-1039.6,121.2-1042.5,120.9-1045.4z"/>
			</g>
			<path class="st1" d="M3.8-1134c-1.9,0.8-3.2,2.1-3.8,4.1c0,6.6,0,13.1,0,19.7c0.8,1.1,1.9,1.8,3.3,1.4c1.4-0.4,1.6-1.6,1.9-2.9
				c0.4-1.9,0.8-3.9,1.6-5.7c1.6-3.5,4.3-6,8.4-6.3c2.6-0.2,5.2-0.3,7.8-0.3c2,0,3.7,0.7,5,2.2c1.6,1.7,2.1,3.7,2.1,5.9
				c0,19.4,0,38.8,0,58.2c0,2.4-0.2,4.9-0.5,7.3c-0.4,2.9-2.2,4.6-5.1,5.1c-1.3,0.2-2.7,0.2-4.1,0.2c-1.7,0.1-2.6,0.9-2.6,2.4
				c0,1.5,1,2.4,2.6,2.4c11.4,0,22.7,0,34.1,0c1.6,0,2.6-1,2.7-2.4c0-1.5-1-2.4-2.6-2.5c-1,0-2.1,0-3.1-0.1c-3.9-0.3-5.7-2-6.1-5.9
				c-0.2-1.8-0.3-3.6-0.3-5.4c0-19.9,0-39.7,0-59.6c0-0.4,0-0.9,0-1.3c0.3-3.4,2.9-6.2,6.2-6.4c2.7-0.2,5.4-0.1,8,0.2
				c4.1,0.4,7.4,2.3,9.2,6c1,2.1,1.4,4.4,2,6.7c0.3,1.1,0.7,2,1.8,2.3c1.8,0.5,3.2-0.6,3.2-2.6c0-5.4-0.1-10.9,0-16.3
				c0.1-3.1-1.1-5.2-4.1-6.3C48.8-1134,26.3-1134,3.8-1134z M25.3-1043.1c4.4-1.2,6.4-3.5,6.9-8.1c0.2-1.7,0.3-3.3,0.3-5
				c0-20.2,0-40.4,0-60.6c0-5.4-3.9-9.6-9.3-9.7c-2.8-0.1-5.6,0.1-8.4,0.3c-5.3,0.5-8.5,3.7-10.6,8.3c-0.7,1.6-1.1,3.4-1.7,5.1
				c0-2.4,0-4.8,0-7.2c0-2.8,0-5.6,0-8.4c0-2.1,1.2-3.2,3.2-3.2c0.2,0,0.5,0,0.7,0c20.8,0,41.7,0,62.5,0c3.1,0,3.9,0.8,3.9,3.9
				c0,4.5,0,9,0,13.4c0,0.4,0,0.8,0,1.2c-0.1,0-0.1,0-0.2,0c-0.2-0.7-0.3-1.5-0.5-2.2c-1.6-6.2-6.2-10.3-12.6-11
				c-2.8-0.3-5.6-0.3-8.4-0.2c-4.7,0.2-8.5,4.1-8.8,9c0,0.6,0,1.1,0,1.7c0,19.2,0,38.5,0,57.7c0,2.7,0.2,5.4,0.5,8.1
				c0.4,3.6,2.5,5.8,6,6.8c0.3,0.1,0.7,0.2,1.3,0.4c-8.7,0-17.1,0-25.5,0c0,0,0-0.1,0-0.1C24.8-1043,25-1043.1,25.3-1043.1z"/>
		</g>
	</g>
</pattern>
<g id="Layer_2">
	<rect class="st2" width="1920" height="1080"/>
</g>
<g id="Layer_1">
	<rect class="st3" width="1920" height="1080"/>
</g>
</svg>
